<svg width="40" height="40" viewBox="0 0 40 40" fill="none" xmlns="http://www.w3.org/2000/svg">
<rect width="40" height="40" fill="#0F0D21"/>
<path d="M18.8931 33.3573H11.4414V6.64197H18.8931C20.3605 6.61057 21.8173 6.89782 23.163 7.48392C24.3768 8.04514 25.4212 8.91634 26.1911 10.0098C27.5908 11.9682 28.3879 14.7924 28.5614 18.4078C28.2559 18.5841 27.9099 18.6782 27.5572 18.6808C27.0799 18.6808 26.7355 18.4975 26.6365 18.1902C26.2284 16.8472 25.7426 15.5291 25.1815 14.2425C24.9305 13.8385 24.6213 13.4737 24.2639 13.1599C23.8779 12.8267 23.4338 12.5673 22.9539 12.3948C22.3713 12.194 21.7578 12.0977 21.1417 12.1105C19.287 12.1105 17.8877 12.7945 16.9822 14.1442C16.0767 15.4939 15.6173 17.4664 15.6173 20.0055C15.6173 20.0184 15.6173 20.0316 15.6173 20.0445V20.0507C15.6173 20.0644 15.6173 20.0773 15.6173 20.0897C15.6173 22.6296 16.0767 24.6017 16.9822 25.9514C17.8877 27.3011 19.2866 27.9855 21.1417 27.9855C21.758 27.9981 22.3717 27.9016 22.9543 27.7004C23.4342 27.5276 23.8783 27.268 24.2642 26.9345C24.622 26.6211 24.9312 26.2562 25.1819 25.8519C25.7428 24.5657 26.2285 23.248 26.6365 21.9054C26.7359 21.5985 27.0799 21.4152 27.5572 21.4152C27.908 21.4177 28.2522 21.5105 28.5567 21.6847C28.3742 25.2541 27.5783 28.0479 26.1911 29.9888C25.4213 31.0824 24.3768 31.9537 23.163 32.515C21.8173 33.1013 20.3605 33.3887 18.8931 33.3573V33.3573Z" fill="white"/>
</svg>
