<svg width="222" height="40" viewBox="0 0 222 40" fill="none" xmlns="http://www.w3.org/2000/svg">
<g clip-path="url(#clip0_479_2)">
<path d="M57.0296 5.95723C58.7468 7.08075 60.1337 8.58099 61.1905 10.4579C62.2472 12.3217 62.7756 14.6083 62.7756 17.318C62.7756 19.6972 62.3 21.7725 61.3489 23.5437C60.4111 25.3017 59.1628 26.7424 57.6041 27.8659C56.0191 28.9895 54.216 29.8288 52.195 30.3839C50.1872 30.9259 48.0804 31.1969 45.8744 31.1969H31.7076V29.6504C32.1304 29.6371 32.6587 29.5975 33.2927 29.5314C33.9268 29.4653 34.3495 29.386 34.5608 29.2934C35.0364 29.0952 35.3666 28.8308 35.5515 28.5004C35.7364 28.1567 35.8289 27.747 35.8289 27.2711V7.32528C35.8289 6.87587 35.743 6.47272 35.5713 6.11584C35.3996 5.74574 35.0628 5.44833 34.5608 5.22363C34.0589 4.99893 33.5239 4.84692 32.9559 4.76761C32.4011 4.68831 31.9718 4.63543 31.668 4.60899V3.0625H46.6274C48.2257 3.0625 49.9363 3.26738 51.7591 3.67713C53.582 4.08689 55.3388 4.84692 57.0296 5.95723ZM52.9876 26.1211C53.6348 25.0637 54.1037 23.808 54.3944 22.354C54.6981 20.8868 54.85 19.2016 54.85 17.2982C54.85 15.4345 54.652 13.736 54.2557 12.2027C53.8594 10.6694 53.2782 9.36084 52.512 8.27695C51.7459 7.1931 50.7882 6.35376 49.639 5.75896C48.5031 5.16415 47.2086 4.86675 45.7555 4.86675C45.2932 4.86675 44.7649 4.87996 44.1705 4.9064C43.5893 4.91962 43.1534 4.93284 42.8628 4.94605V26.2996C42.8628 26.7755 42.9222 27.1984 43.0411 27.5685C43.1731 27.9254 43.3911 28.2426 43.695 28.5202C43.9987 28.7978 44.3686 29.0159 44.8045 29.1745C45.2536 29.3199 45.8348 29.3926 46.5481 29.3926C48.0408 29.3926 49.322 29.115 50.3919 28.5599C51.4619 28.0047 52.3271 27.1918 52.9876 26.1211Z" fill="white"/>
<path d="M87.9812 30.7805C87.3995 31.0317 86.7131 31.263 85.9204 31.4744C85.1276 31.686 84.2892 31.7917 83.4044 31.7917C81.7793 31.7917 80.5838 31.5538 79.818 31.0779C79.0515 30.5888 78.5297 29.8949 78.2528 28.9961H78.1338C77.6846 29.4455 77.249 29.8288 76.826 30.146C76.4166 30.4633 75.9741 30.7342 75.4981 30.9589C74.8775 31.2497 74.2765 31.4613 73.6954 31.5934C73.1273 31.7388 72.3282 31.8115 71.2978 31.8115C69.7656 31.8115 68.4579 31.3621 67.3748 30.4633C66.2916 29.5512 65.75 28.3484 65.75 26.8548C65.75 25.9956 65.8689 25.2687 66.1067 24.6738C66.3444 24.0658 66.6813 23.5305 67.1172 23.0678C67.5135 22.6448 67.9691 22.2946 68.4843 22.0171C69.0127 21.7395 69.5873 21.4817 70.2081 21.2438C71.397 20.8076 72.8235 20.3582 74.4879 19.8956C76.1523 19.4197 77.3672 18.9968 78.1338 18.6266V16.7233C78.1338 16.3928 78.1068 15.9566 78.0544 15.4147C78.0013 14.8727 77.889 14.4168 77.7176 14.0466C77.5327 13.6237 77.2422 13.2668 76.8455 12.9759C76.4495 12.6851 75.9277 12.5398 75.2802 12.5398C74.6992 12.5398 74.2104 12.6257 73.8142 12.7975C73.4311 12.9562 73.1208 13.1214 72.8829 13.2932C72.9226 13.5576 73.0349 13.9607 73.2198 14.5027C73.4047 15.0445 73.4972 15.5667 73.4972 16.069C73.4972 16.2937 73.4378 16.5779 73.3188 16.9216C73.2 17.252 73.0282 17.5163 72.8037 17.7146C72.4999 17.9789 72.1565 18.1838 71.7734 18.3292C71.4035 18.4747 70.8289 18.5473 70.0496 18.5473C68.94 18.5473 68.1012 18.283 67.5332 17.7543C66.9653 17.2123 66.6813 16.5117 66.6813 15.6526C66.6813 14.9124 66.9719 14.2515 67.5531 13.6699C68.1475 13.0751 68.8674 12.586 69.7128 12.2028C70.5449 11.8062 71.5026 11.5022 72.5858 11.2907C73.6689 11.066 74.6728 10.9536 75.5976 10.9536C76.8784 10.9536 78.0544 11.0329 79.1241 11.1916C80.1946 11.337 81.1587 11.6475 82.0173 12.1234C82.8363 12.586 83.483 13.2601 83.9591 14.1457C84.4479 15.0181 84.692 16.1615 84.692 17.5758C84.692 19.0694 84.659 20.8407 84.5931 22.8894C84.54 24.9382 84.5138 26.2864 84.5138 26.9341C84.5138 27.5289 84.5991 27.9981 84.7713 28.3418C84.9562 28.6854 85.2332 28.9432 85.6037 29.115C85.8283 29.2208 86.1779 29.2869 86.6532 29.3133C87.142 29.3266 87.5844 29.3332 87.9812 29.3332V30.7805ZM78.1338 20.4507C77.3942 20.7019 76.6606 20.9926 75.9345 21.3231C75.2076 21.6403 74.6133 21.9774 74.151 22.3343C73.6623 22.7043 73.2792 23.1802 73.0018 23.7618C72.7245 24.3302 72.5858 25.0042 72.5858 25.7841C72.5858 26.8151 72.8169 27.5619 73.2792 28.0245C73.7548 28.4872 74.336 28.7185 75.0227 28.7185C75.7496 28.7185 76.3439 28.5731 76.8058 28.2823C77.2819 27.9783 77.6973 27.6082 78.0544 27.172L78.1338 20.4507Z" fill="white"/>
<path d="M104.246 30.2851C103.4 30.6552 102.496 30.9856 101.532 31.2764C100.567 31.5804 99.3916 31.7324 98.0045 31.7324C95.9437 31.7324 94.4114 31.2302 93.4075 30.2256C92.4172 29.221 91.9216 27.7869 91.9216 25.9231V13.7494H88.3555V11.6081H92.001V5.60059H98.4402V11.6081H103.989V13.7494H98.4798V24.6146C98.4798 26.1611 98.6917 27.2582 99.1139 27.9058C99.5503 28.5535 100.323 28.8773 101.432 28.8773C101.789 28.8773 102.284 28.8509 102.918 28.798C103.552 28.7451 103.995 28.6857 104.246 28.6196V30.2851Z" fill="white"/>
<path d="M128.282 30.7805C127.701 31.0317 127.014 31.263 126.222 31.4744C125.429 31.686 124.59 31.7917 123.705 31.7917C122.081 31.7917 120.885 31.5538 120.119 31.0779C119.353 30.5888 118.831 29.8949 118.553 28.9961H118.434C117.986 29.4455 117.55 29.8288 117.127 30.146C116.718 30.4633 116.275 30.7342 115.799 30.9589C115.179 31.2497 114.578 31.4613 113.996 31.5934C113.429 31.7388 112.629 31.8115 111.599 31.8115C110.067 31.8115 108.759 31.3621 107.676 30.4633C106.593 29.5512 106.051 28.3484 106.051 26.8548C106.051 25.9956 106.17 25.2687 106.408 24.6738C106.646 24.0658 106.982 23.5305 107.418 23.0678C107.814 22.6448 108.27 22.2946 108.785 22.0171C109.314 21.7395 109.889 21.4817 110.509 21.2438C111.698 20.8076 113.125 20.3582 114.789 19.8956C116.454 19.4197 117.669 18.9968 118.434 18.6266V16.7233C118.434 16.3928 118.408 15.9566 118.356 15.4147C118.303 14.8727 118.19 14.4168 118.019 14.0466C117.834 13.6237 117.543 13.2668 117.147 12.9759C116.751 12.6851 116.229 12.5398 115.582 12.5398C115.001 12.5398 114.512 12.6257 114.115 12.7975C113.733 12.9562 113.422 13.1214 113.184 13.2932C113.224 13.5576 113.336 13.9607 113.521 14.5027C113.706 15.0445 113.798 15.5667 113.798 16.069C113.798 16.2937 113.739 16.5779 113.62 16.9216C113.501 17.252 113.329 17.5163 113.105 17.7146C112.801 17.9789 112.458 18.1838 112.075 18.3292C111.705 18.4747 111.13 18.5473 110.351 18.5473C109.241 18.5473 108.402 18.283 107.835 17.7543C107.266 17.2123 106.982 16.5117 106.982 15.6526C106.982 14.9124 107.273 14.2515 107.854 13.6699C108.448 13.0751 109.169 12.586 110.014 12.2028C110.846 11.8062 111.804 11.5022 112.887 11.2907C113.97 11.066 114.974 10.9536 115.898 10.9536C117.18 10.9536 118.356 11.0329 119.425 11.1916C120.495 11.337 121.459 11.6475 122.318 12.1234C123.137 12.586 123.784 13.2601 124.26 14.1457C124.748 15.0181 124.993 16.1615 124.993 17.5758C124.993 19.0694 124.96 20.8407 124.894 22.8894C124.841 24.9382 124.814 26.2864 124.814 26.9341C124.814 27.5289 124.9 27.9981 125.073 28.3418C125.258 28.6854 125.534 28.9432 125.904 29.115C126.129 29.2208 126.479 29.2869 126.955 29.3133C127.443 29.3266 127.886 29.3332 128.282 29.3332V30.7805ZM118.434 20.4507C117.695 20.7019 116.962 20.9926 116.235 21.3231C115.509 21.6403 114.915 21.9774 114.452 22.3343C113.963 22.7043 113.581 23.1802 113.303 23.7618C113.025 24.3302 112.887 25.0042 112.887 25.7841C112.887 26.8151 113.118 27.5619 113.581 28.0245C114.056 28.4872 114.637 28.7185 115.324 28.7185C116.05 28.7185 116.645 28.5731 117.107 28.2823C117.582 27.9783 117.999 27.6082 118.356 27.172L118.434 20.4507Z" fill="white"/>
<path d="M144.764 31.9503C142.704 31.9503 140.775 31.6198 138.979 30.9589C137.182 30.2848 135.617 29.3133 134.283 28.0444C132.975 26.8019 131.944 25.2686 131.191 23.4445C130.439 21.6072 130.062 19.5915 130.062 17.3973C130.062 15.2164 130.439 13.2006 131.191 11.3501C131.958 9.48639 133.028 7.87381 134.401 6.51238C135.749 5.17737 137.367 4.14637 139.256 3.41939C141.145 2.67919 143.165 2.30908 145.319 2.30908C146.878 2.30908 148.298 2.50074 149.579 2.88406C150.86 3.25416 151.943 3.67713 152.828 4.15298L154.057 3.06251H155.78L155.959 13.3328H154.215C153.225 10.2002 152.036 7.90025 150.649 6.43307C149.262 4.96588 147.571 4.23229 145.577 4.23229C143.093 4.23229 141.204 5.32937 139.91 7.52355C138.615 9.70452 137.968 12.771 137.968 16.7232C137.968 18.957 138.186 20.8671 138.622 22.4532C139.071 24.0261 139.652 25.295 140.366 26.26C141.132 27.2645 142.037 28.0047 143.08 28.4805C144.124 28.9432 145.279 29.1745 146.547 29.1745C148.396 29.1745 150.041 28.6722 151.481 27.6677C152.934 26.6631 154.255 25.143 155.443 23.1074L157.148 24.1385C156.58 25.3017 155.932 26.3459 155.206 27.2711C154.479 28.1832 153.641 28.9696 152.689 29.6305C151.646 30.3575 150.49 30.9259 149.222 31.3356C147.967 31.7454 146.482 31.9503 144.764 31.9503Z" fill="white"/>
<path d="M170.919 31.1969H158.496V29.7495C158.839 29.7231 159.17 29.69 159.486 29.6504C159.816 29.6107 160.107 29.5446 160.358 29.4521C160.78 29.2935 161.065 29.0688 161.21 28.778C161.369 28.474 161.447 28.0774 161.447 27.5884V5.62021C161.447 5.11794 161.342 4.65531 161.131 4.23233C160.932 3.79615 160.662 3.4657 160.319 3.24099C160.054 3.06916 159.652 2.90394 159.11 2.74532C158.581 2.58671 158.113 2.49418 157.703 2.46774V1.02038L167.67 0.504883L167.967 0.822116V27.3306C167.967 27.8197 168.052 28.2163 168.224 28.5203C168.396 28.8243 168.673 29.0622 169.056 29.234C169.32 29.353 169.598 29.4587 169.888 29.5512C170.179 29.6438 170.522 29.7099 170.919 29.7495V31.1969Z" fill="white"/>
<path d="M195.489 30.7805C194.908 31.0317 194.221 31.263 193.428 31.4744C192.635 31.686 191.797 31.7917 190.912 31.7917C189.287 31.7917 188.091 31.5538 187.326 31.0779C186.559 30.5888 186.037 29.8949 185.76 28.9961H185.641C185.192 29.4455 184.757 29.8288 184.334 30.146C183.924 30.4633 183.482 30.7342 183.006 30.9589C182.385 31.2497 181.784 31.4613 181.203 31.5934C180.635 31.7388 179.836 31.8115 178.805 31.8115C177.273 31.8115 175.965 31.3621 174.882 30.4633C173.799 29.5512 173.258 28.3484 173.258 26.8548C173.258 25.9956 173.377 25.2687 173.614 24.6738C173.852 24.0658 174.189 23.5305 174.625 23.0678C175.021 22.6448 175.477 22.2946 175.992 22.0171C176.52 21.7395 177.095 21.4817 177.716 21.2438C178.905 20.8076 180.331 20.3582 181.996 19.8956C183.66 19.4197 184.875 18.9968 185.641 18.6266V16.7233C185.641 16.3928 185.615 15.9566 185.562 15.4147C185.509 14.8727 185.397 14.4168 185.225 14.0466C185.04 13.6237 184.75 13.2668 184.353 12.9759C183.957 12.6851 183.435 12.5398 182.788 12.5398C182.207 12.5398 181.718 12.6257 181.322 12.7975C180.939 12.9562 180.628 13.1214 180.391 13.2932C180.431 13.5576 180.543 13.9607 180.728 14.5027C180.913 15.0445 181.005 15.5667 181.005 16.069C181.005 16.2937 180.946 16.5779 180.827 16.9216C180.708 17.252 180.536 17.5163 180.312 17.7146C180.008 17.9789 179.664 18.1838 179.281 18.3292C178.911 18.4747 178.337 18.5473 177.558 18.5473C176.447 18.5473 175.609 18.283 175.041 17.7543C174.473 17.2123 174.189 16.5117 174.189 15.6526C174.189 14.9124 174.479 14.2515 175.061 13.6699C175.655 13.0751 176.375 12.586 177.221 12.2028C178.052 11.8062 179.011 11.5022 180.094 11.2907C181.177 11.066 182.181 10.9536 183.105 10.9536C184.387 10.9536 185.562 11.0329 186.632 11.1916C187.702 11.337 188.666 11.6475 189.525 12.1234C190.344 12.586 190.991 13.2601 191.467 14.1457C191.956 15.0181 192.2 16.1615 192.2 17.5758C192.2 19.0694 192.167 20.8407 192.101 22.8894C192.048 24.9382 192.021 26.2864 192.021 26.9341C192.021 27.5289 192.107 27.9981 192.279 28.3418C192.464 28.6854 192.742 28.9432 193.111 29.115C193.336 29.2208 193.685 29.2869 194.162 29.3133C194.65 29.3266 195.093 29.3332 195.489 29.3332V30.7805ZM185.641 20.4507C184.902 20.7019 184.168 20.9926 183.442 21.3231C182.715 21.6403 182.121 21.9774 181.659 22.3343C181.17 22.7043 180.787 23.1802 180.51 23.7618C180.232 24.3302 180.094 25.0042 180.094 25.7841C180.094 26.8151 180.324 27.5619 180.787 28.0245C181.262 28.4872 181.844 28.7185 182.53 28.7185C183.257 28.7185 183.852 28.5731 184.314 28.2823C184.789 27.9783 185.206 27.6082 185.562 27.172L185.641 20.4507Z" fill="white"/>
<path d="M221.146 21.541C221.146 24.33 220.215 26.7225 218.353 28.7183C216.49 30.7143 214.132 31.7122 211.279 31.7122C210.011 31.7122 208.981 31.5801 208.189 31.3157C207.396 31.0645 206.742 30.7539 206.227 30.3838H206.068V35.9552C206.068 36.4178 206.167 36.821 206.365 37.1646C206.577 37.5083 206.867 37.7595 207.237 37.918C207.593 38.0634 208.096 38.1956 208.743 38.3146C209.404 38.4335 209.951 38.5062 210.388 38.5326V39.9998H196.082V38.5326C196.412 38.5062 196.828 38.4534 197.331 38.3741C197.832 38.308 198.209 38.2353 198.459 38.1559C198.882 38.0105 199.166 37.7595 199.311 37.4025C199.47 37.0589 199.549 36.6623 199.549 36.2129V15.93C199.51 15.4938 199.404 15.1105 199.233 14.7801C199.074 14.4496 198.817 14.1589 198.459 13.9077C198.195 13.7359 197.846 13.5971 197.409 13.4913C196.974 13.3723 196.545 13.2931 196.122 13.2534V11.806L205.771 11.2905L206.068 11.5483V13.749L206.227 13.7887C207.099 12.9031 208.063 12.2158 209.12 11.7267C210.19 11.2377 211.246 10.9932 212.29 10.9932C215.024 10.9932 217.183 11.9646 218.769 13.9077C220.354 15.8375 221.146 18.3819 221.146 21.541ZM214.033 21.6204C214.033 20.629 213.961 19.684 213.816 18.7851C213.67 17.8731 213.412 17.0601 213.042 16.3464C212.686 15.6326 212.211 15.0643 211.616 14.6413C211.035 14.2183 210.321 14.0068 209.476 14.0068C208.618 14.0068 207.93 14.1589 207.415 14.4628C206.9 14.7536 206.451 15.137 206.068 15.6128V26.8547C206.147 27.119 206.299 27.4627 206.524 27.8856C206.748 28.2954 206.973 28.6258 207.197 28.877C207.528 29.2338 207.904 29.4982 208.327 29.67C208.749 29.8419 209.212 29.9278 209.714 29.9278C211.022 29.9278 212.065 29.2272 212.845 27.8261C213.637 26.4118 214.033 24.3432 214.033 21.6204Z" fill="white"/>
<path d="M9.45574 33.9263H0V0.00294957H9.45574C11.3179 -0.0369211 13.1665 0.327834 14.874 1.07206C16.4143 1.7847 17.7396 2.89096 18.7166 4.27939C20.4926 6.76623 21.5041 10.3524 21.7244 14.9433C21.3367 15.1672 20.8977 15.2866 20.4501 15.2899C19.8443 15.2899 19.4074 15.0572 19.2817 14.667C18.7639 12.9616 18.1474 11.2879 17.4354 9.65416C17.1169 9.14112 16.7246 8.6779 16.271 8.27955C15.7812 7.85633 15.2177 7.52704 14.6087 7.30797C13.8695 7.0529 13.0909 6.93068 12.3091 6.94697C9.95556 6.94697 8.18004 7.81551 7.03097 9.52936C5.88191 11.2432 5.29896 13.7479 5.29896 16.9721C5.29896 16.9884 5.29896 17.0052 5.29896 17.0216V17.0295C5.29896 17.0468 5.29896 17.0631 5.29896 17.079C5.29896 20.3042 5.88191 22.8084 7.03097 24.5222C8.18004 26.236 9.95511 27.1051 12.3091 27.1051C13.0912 27.1211 13.8699 26.9986 14.6092 26.7431C15.2182 26.5237 15.7817 26.194 16.2715 25.7706C16.7254 25.3725 17.1178 24.9093 17.4359 24.396C18.1477 22.7627 18.764 21.0894 19.2817 19.3846C19.4079 18.9949 19.8443 18.7622 20.4501 18.7622C20.8952 18.7653 21.3321 18.8831 21.7184 19.1043C21.4868 23.6368 20.4768 27.1843 18.7166 29.6489C17.7398 31.0375 16.4143 32.144 14.874 32.8567C13.1665 33.6012 11.3179 33.9661 9.45574 33.9263Z" fill="white"/>
</g>
<defs>
<clipPath id="clip0_479_2">
<rect width="221.201" height="40" fill="white"/>
</clipPath>
</defs>
</svg>
