<svg width="2955" height="534" viewBox="0 0 2955 534" fill="none" xmlns="http://www.w3.org/2000/svg">
<path d="M761.864 79.5297C784.804 94.5287 803.332 114.557 817.449 139.614C831.566 164.495 838.624 195.022 838.624 231.196C838.624 262.959 832.271 290.663 819.566 314.309C807.038 337.778 790.362 357.012 769.54 372.011C748.365 387.01 724.278 398.215 697.28 405.626C670.458 412.861 642.313 416.479 612.844 416.479H423.592V395.833C429.239 395.656 436.297 395.127 444.767 394.245C453.237 393.362 458.884 392.304 461.707 391.068C468.06 388.422 472.471 384.892 474.942 380.481C477.412 375.893 478.647 370.423 478.647 364.07V97.7932C478.647 91.7936 477.5 86.4116 475.206 81.6472C472.912 76.7063 468.413 72.736 461.707 69.7362C455.002 66.7364 447.855 64.7071 440.267 63.6483C432.856 62.5896 427.121 61.8837 423.062 61.5308V40.8851H622.903C644.254 40.8851 667.106 43.6202 691.457 49.0904C715.808 54.5607 739.277 64.7071 761.864 79.5297ZM707.868 348.718C716.514 334.601 722.778 317.838 726.661 298.427C730.719 278.84 732.748 256.342 732.748 230.932C732.748 206.051 730.102 183.376 724.808 162.907C719.514 142.437 711.75 124.968 701.515 110.498C691.281 96.0286 678.487 84.8234 663.135 76.8828C647.96 68.9421 630.667 64.9718 611.256 64.9718C605.08 64.9718 598.022 65.1482 590.081 65.5012C582.317 65.6776 576.494 65.8541 572.612 66.0305V351.1C572.612 357.453 573.406 363.1 574.994 368.04C576.758 372.805 579.67 377.04 583.729 380.746C587.787 384.451 592.728 387.363 598.551 389.48C604.551 391.421 612.315 392.392 621.844 392.392C641.784 392.392 658.9 388.686 673.193 381.275C687.487 373.864 699.045 363.011 707.868 348.718Z" fill="white"/>
<path d="M1175.31 410.92C1167.54 414.273 1158.37 417.361 1147.78 420.184C1137.19 423.008 1125.99 424.419 1114.17 424.419C1092.46 424.419 1076.49 421.243 1066.26 414.89C1056.02 408.361 1049.05 399.097 1045.35 387.098H1043.76C1037.76 393.098 1031.94 398.215 1026.29 402.45C1020.82 406.685 1014.91 410.302 1008.55 413.302C1000.26 417.184 992.232 420.008 984.468 421.772C976.88 423.713 966.204 424.684 952.44 424.684C931.971 424.684 914.501 418.684 900.032 406.685C885.562 394.509 878.327 378.452 878.327 358.512C878.327 347.042 879.915 337.337 883.092 329.396C886.268 321.279 890.768 314.132 896.591 307.956C901.885 302.309 907.972 297.633 914.854 293.928C921.913 290.222 929.589 286.781 937.882 283.605C953.764 277.782 972.821 271.782 995.055 265.606C1017.29 259.253 1033.52 253.607 1043.76 248.666V223.256C1043.76 218.844 1043.4 213.021 1042.7 205.786C1041.99 198.551 1040.49 192.464 1038.2 187.523C1035.73 181.876 1031.85 177.112 1026.55 173.229C1021.26 169.347 1014.29 167.406 1005.64 167.406C997.878 167.406 991.349 168.553 986.056 170.847C980.938 172.965 976.792 175.171 973.615 177.465C974.145 180.994 975.645 186.376 978.115 193.611C980.585 200.845 981.821 207.816 981.821 214.521C981.821 217.521 981.027 221.315 979.438 225.903C977.85 230.314 975.556 233.843 972.557 236.49C968.498 240.019 963.91 242.754 958.793 244.695C953.852 246.637 946.176 247.607 935.765 247.607C920.942 247.607 909.737 244.078 902.149 237.02C894.562 229.785 890.768 220.432 890.768 208.962C890.768 199.081 894.65 190.258 902.414 182.494C910.355 174.553 919.972 168.024 931.265 162.907C942.382 157.613 955.175 153.554 969.645 150.731C984.115 147.731 997.526 146.231 1009.88 146.231C1026.99 146.231 1042.7 147.29 1056.99 149.408C1071.29 151.349 1084.17 155.495 1095.64 161.848C1106.58 168.024 1115.22 177.023 1121.58 188.846C1128.11 200.492 1131.37 215.756 1131.37 234.637C1131.37 254.577 1130.93 278.223 1130.05 305.574C1129.34 332.925 1128.99 350.924 1128.99 359.57C1128.99 367.511 1130.13 373.775 1132.43 378.363C1134.9 382.951 1138.6 386.392 1143.55 388.686C1146.55 390.098 1151.22 390.98 1157.57 391.333C1164.1 391.51 1170.01 391.598 1175.31 391.598V410.92ZM1043.76 273.017C1033.88 276.37 1024.08 280.252 1014.38 284.663C1004.67 288.898 996.731 293.398 990.555 298.163C984.026 303.103 978.909 309.456 975.203 317.22C971.498 324.808 969.645 333.807 969.645 344.218C969.645 357.982 972.733 367.952 978.909 374.128C985.262 380.304 993.026 383.392 1002.2 383.392C1011.91 383.392 1019.85 381.451 1026.02 377.569C1032.38 373.511 1037.93 368.57 1042.7 362.747L1043.76 273.017Z" fill="white"/>
<path d="M1392.62 404.303C1381.32 409.244 1369.24 413.655 1356.36 417.537C1343.47 421.596 1327.77 423.625 1309.24 423.625C1281.71 423.625 1261.24 416.92 1247.83 403.509C1234.6 390.098 1227.98 370.952 1227.98 346.071V183.552H1180.34V154.966H1229.04V74.7653H1315.06V154.966H1389.18V183.552H1315.59V328.602C1315.59 349.248 1318.42 363.894 1324.06 372.54C1329.89 381.187 1340.21 385.51 1355.03 385.51C1359.8 385.51 1366.41 385.157 1374.88 384.451C1383.35 383.745 1389.26 382.951 1392.62 382.069V404.303Z" fill="white"/>
<path d="M1713.69 410.92C1705.92 414.273 1696.75 417.361 1686.16 420.184C1675.57 423.008 1664.36 424.419 1652.54 424.419C1630.84 424.419 1614.87 421.243 1604.63 414.89C1594.4 408.361 1587.43 399.097 1583.72 387.098H1582.13C1576.14 393.098 1570.31 398.215 1564.67 402.45C1559.2 406.685 1553.28 410.302 1546.93 413.302C1538.64 417.184 1530.61 420.008 1522.84 421.772C1515.26 423.713 1504.58 424.684 1490.82 424.684C1470.35 424.684 1452.88 418.684 1438.41 406.685C1423.94 394.509 1416.7 378.452 1416.7 358.512C1416.7 347.042 1418.29 337.337 1421.47 329.396C1424.65 321.279 1429.14 314.132 1434.97 307.956C1440.26 302.309 1446.35 297.633 1453.23 293.928C1460.29 290.222 1467.97 286.781 1476.26 283.605C1492.14 277.782 1511.2 271.782 1533.43 265.606C1555.67 259.253 1571.9 253.607 1582.13 248.666V223.256C1582.13 218.844 1581.78 213.021 1581.08 205.786C1580.37 198.551 1578.87 192.464 1576.58 187.523C1574.11 181.876 1570.22 177.112 1564.93 173.229C1559.64 169.347 1552.67 167.406 1544.02 167.406C1536.26 167.406 1529.73 168.553 1524.43 170.847C1519.32 172.965 1515.17 175.171 1511.99 177.465C1512.52 180.994 1514.02 186.376 1516.49 193.611C1518.96 200.845 1520.2 207.816 1520.2 214.521C1520.2 217.521 1519.4 221.315 1517.82 225.903C1516.23 230.314 1513.93 233.843 1510.93 236.49C1506.88 240.019 1502.29 242.754 1497.17 244.695C1492.23 246.637 1484.55 247.607 1474.14 247.607C1459.32 247.607 1448.11 244.078 1440.53 237.02C1432.94 229.785 1429.14 220.432 1429.14 208.962C1429.14 199.081 1433.03 190.258 1440.79 182.494C1448.73 174.553 1458.35 168.024 1469.64 162.907C1480.76 157.613 1493.55 153.554 1508.02 150.731C1522.49 147.731 1535.9 146.231 1548.25 146.231C1565.37 146.231 1581.08 147.29 1595.37 149.408C1609.66 151.349 1622.54 155.495 1634.01 161.848C1644.95 168.024 1653.6 177.023 1659.95 188.846C1666.48 200.492 1669.75 215.756 1669.75 234.637C1669.75 254.577 1669.31 278.223 1668.42 305.574C1667.72 332.925 1667.36 350.924 1667.36 359.57C1667.36 367.511 1668.51 373.775 1670.81 378.363C1673.28 382.951 1676.98 386.392 1681.92 388.686C1684.92 390.098 1689.6 390.98 1695.95 391.333C1702.48 391.51 1708.39 391.598 1713.69 391.598V410.92ZM1582.13 273.017C1572.25 276.37 1562.46 280.252 1552.75 284.663C1543.05 288.898 1535.11 293.398 1528.93 298.163C1522.4 303.103 1517.29 309.456 1513.58 317.22C1509.87 324.808 1508.02 333.807 1508.02 344.218C1508.02 357.982 1511.11 367.952 1517.29 374.128C1523.64 380.304 1531.4 383.392 1540.58 383.392C1550.28 383.392 1558.22 381.451 1564.4 377.569C1570.75 373.511 1576.31 368.57 1581.08 362.747L1582.13 273.017Z" fill="white"/>
<path d="M1933.91 426.537C1906.38 426.537 1880.62 422.125 1856.62 413.302C1832.62 404.303 1811.71 391.333 1793.89 374.393C1776.42 357.806 1762.65 337.337 1752.59 312.985C1742.54 288.457 1737.51 261.547 1737.51 232.255C1737.51 203.139 1742.54 176.229 1752.59 151.525C1762.83 126.644 1777.12 105.116 1795.47 86.9409C1813.47 69.1186 1835.09 55.3547 1860.32 45.6495C1885.56 35.7678 1912.55 30.8269 1941.32 30.8269C1962.14 30.8269 1981.11 33.3856 1998.23 38.5029C2015.34 43.4437 2029.81 49.0904 2041.63 55.443L2058.05 40.8851H2081.07L2083.46 177.994H2060.16C2046.93 136.173 2031.05 105.469 2012.52 85.8822C1993.99 66.2952 1971.4 56.5017 1944.76 56.5017C1911.58 56.5017 1886.35 71.1478 1869.06 100.44C1851.76 129.556 1843.12 170.494 1843.12 223.256C1843.12 253.077 1846.03 278.576 1851.85 299.751C1857.85 320.749 1865.62 337.689 1875.15 350.571C1885.38 363.982 1897.47 373.864 1911.41 380.216C1925.35 386.392 1940.79 389.48 1957.73 389.48C1982.43 389.48 2004.4 382.775 2023.64 369.364C2043.05 355.953 2060.69 335.66 2076.57 308.485L2099.34 322.249C2091.75 337.778 2083.1 351.718 2073.4 364.07C2063.69 376.246 2052.49 386.745 2039.78 395.568C2025.84 405.273 2010.4 412.861 1993.46 418.331C1976.7 423.802 1956.85 426.537 1933.91 426.537Z" fill="white"/>
<path d="M2283.3 416.479H2117.34V397.156C2121.92 396.803 2126.34 396.362 2130.57 395.833C2134.98 395.303 2138.86 394.421 2142.22 393.186C2147.86 391.068 2151.66 388.069 2153.6 384.186C2155.72 380.128 2156.77 374.834 2156.77 368.305V75.0299C2156.77 68.3245 2155.36 62.1484 2152.54 56.5017C2149.89 50.6786 2146.28 46.2671 2141.69 43.2673C2138.16 40.9733 2132.78 38.7676 2125.54 36.6501C2118.48 34.5326 2112.22 33.2973 2106.75 32.9444V13.6221L2239.89 6.74023L2243.86 10.9753V364.864C2243.86 371.393 2245 376.687 2247.3 380.746C2249.59 384.804 2253.3 387.98 2258.41 390.274C2261.94 391.862 2265.65 393.274 2269.53 394.509C2273.41 395.745 2278 396.627 2283.3 397.156V416.479Z" fill="white"/>
<path d="M2611.51 410.92C2603.75 414.273 2594.57 417.361 2583.98 420.184C2573.39 423.008 2562.19 424.419 2550.37 424.419C2528.66 424.419 2512.69 421.243 2502.46 414.89C2492.22 408.361 2485.25 399.097 2481.55 387.098H2479.96C2473.96 393.098 2468.14 398.215 2462.49 402.45C2457.02 406.685 2451.11 410.302 2444.76 413.302C2436.46 417.184 2428.43 420.008 2420.67 421.772C2413.08 423.713 2402.41 424.684 2388.64 424.684C2368.17 424.684 2350.7 418.684 2336.23 406.685C2321.76 394.509 2314.53 378.452 2314.53 358.512C2314.53 347.042 2316.12 337.337 2319.29 329.396C2322.47 321.279 2326.97 314.132 2332.79 307.956C2338.09 302.309 2344.17 297.633 2351.06 293.928C2358.11 290.222 2365.79 286.781 2374.08 283.605C2389.97 277.782 2409.02 271.782 2431.26 265.606C2453.49 259.253 2469.72 253.607 2479.96 248.666V223.256C2479.96 218.844 2479.61 213.021 2478.9 205.786C2478.19 198.551 2476.69 192.464 2474.4 187.523C2471.93 181.876 2468.05 177.112 2462.75 173.229C2457.46 169.347 2450.49 167.406 2441.84 167.406C2434.08 167.406 2427.55 168.553 2422.26 170.847C2417.14 172.965 2412.99 175.171 2409.82 177.465C2410.35 180.994 2411.85 186.376 2414.32 193.611C2416.79 200.845 2418.02 207.816 2418.02 214.521C2418.02 217.521 2417.23 221.315 2415.64 225.903C2414.05 230.314 2411.76 233.843 2408.76 236.49C2404.7 240.019 2400.11 242.754 2394.99 244.695C2390.05 246.637 2382.38 247.607 2371.97 247.607C2357.14 247.607 2345.94 244.078 2338.35 237.02C2330.76 229.785 2326.97 220.432 2326.97 208.962C2326.97 199.081 2330.85 190.258 2338.62 182.494C2346.56 174.553 2356.17 168.024 2367.47 162.907C2378.58 157.613 2391.38 153.554 2405.85 150.731C2420.32 147.731 2433.73 146.231 2446.08 146.231C2463.2 146.231 2478.9 147.29 2493.19 149.408C2507.49 151.349 2520.37 155.495 2531.84 161.848C2542.78 168.024 2551.43 177.023 2557.78 188.846C2564.31 200.492 2567.57 215.756 2567.57 234.637C2567.57 254.577 2567.13 278.223 2566.25 305.574C2565.54 332.925 2565.19 350.924 2565.19 359.57C2565.19 367.511 2566.34 373.775 2568.63 378.363C2571.1 382.951 2574.81 386.392 2579.75 388.686C2582.75 390.098 2587.42 390.98 2593.78 391.333C2600.3 391.51 2606.22 391.598 2611.51 391.598V410.92ZM2479.96 273.017C2470.08 276.37 2460.28 280.252 2450.58 284.663C2440.87 288.898 2432.93 293.398 2426.76 298.163C2420.23 303.103 2415.11 309.456 2411.41 317.22C2407.7 324.808 2405.85 333.807 2405.85 344.218C2405.85 357.982 2408.93 367.952 2415.11 374.128C2421.46 380.304 2429.23 383.392 2438.4 383.392C2448.11 383.392 2456.05 381.451 2462.23 377.569C2468.58 373.511 2474.14 368.57 2478.9 362.747L2479.96 273.017Z" fill="white"/>
<path d="M2954.28 287.575C2954.28 324.808 2941.84 356.747 2916.96 383.392C2892.08 410.038 2860.58 423.36 2822.47 423.36C2805.53 423.36 2791.76 421.596 2781.18 418.067C2770.59 414.714 2761.85 410.567 2754.97 405.626H2752.85V480.004C2752.85 486.18 2754.18 491.562 2756.82 496.15C2759.65 500.738 2763.53 504.091 2768.47 506.208C2773.23 508.149 2779.94 509.914 2788.59 511.502C2797.41 513.09 2804.73 514.06 2810.56 514.413V534H2619.45V514.413C2623.86 514.06 2629.42 513.355 2636.13 512.296C2642.83 511.414 2647.86 510.443 2651.21 509.384C2656.86 507.443 2660.65 504.091 2662.59 499.326C2664.71 494.738 2665.77 489.444 2665.77 483.445V212.668C2665.24 206.845 2663.83 201.728 2661.54 197.316C2659.42 192.905 2655.98 189.023 2651.21 185.67C2647.68 183.376 2643.01 181.523 2637.18 180.111C2631.36 178.523 2625.63 177.465 2619.98 176.935V157.613L2748.88 150.731L2752.85 154.172V183.552L2754.97 184.082C2766.62 172.259 2779.5 163.083 2793.62 156.554C2807.91 150.025 2822.03 146.761 2835.97 146.761C2872.49 146.761 2901.34 159.73 2922.52 185.67C2943.69 211.433 2954.28 245.401 2954.28 287.575ZM2859.26 288.634C2859.26 275.399 2858.29 262.783 2856.35 250.783C2854.41 238.608 2850.96 227.755 2846.02 218.227C2841.26 208.698 2834.91 201.11 2826.97 195.463C2819.2 189.817 2809.67 186.993 2798.38 186.993C2786.91 186.993 2777.73 189.023 2770.85 193.081C2763.97 196.963 2757.97 202.081 2752.85 208.433V358.512C2753.91 362.041 2755.94 366.629 2758.94 372.275C2761.94 377.746 2764.94 382.157 2767.94 385.51C2772.35 390.274 2777.38 393.803 2783.03 396.097C2788.67 398.391 2794.85 399.538 2801.56 399.538C2819.03 399.538 2832.97 390.186 2843.38 371.481C2853.96 352.6 2859.26 324.984 2859.26 288.634Z" fill="white"/>
<path d="M126.318 452.916H0V0.0393768H126.318C151.194 -0.492897 175.889 4.37659 198.7 14.312C219.276 23.8257 236.981 38.5943 250.032 57.1299C273.758 90.3292 287.271 138.204 290.213 199.493C285.034 202.482 279.169 204.076 273.19 204.12C265.098 204.12 259.261 201.013 257.582 195.804C250.665 173.038 242.429 150.693 232.917 128.883C228.663 122.034 223.422 115.85 217.362 110.532C210.819 104.882 203.291 100.486 195.156 97.5614C185.281 94.1562 174.88 92.5246 164.436 92.7421C132.995 92.7421 109.276 104.337 93.9258 127.217C78.5756 150.097 70.7881 183.534 70.7881 226.577C70.7881 226.795 70.7881 227.02 70.7881 227.238V227.344C70.7881 227.575 70.7881 227.793 70.7881 228.005C70.7881 271.061 78.5756 304.492 93.9258 327.371C109.276 350.251 132.989 361.853 164.436 361.853C174.883 362.067 185.286 360.431 195.163 357.021C203.298 354.091 210.825 349.69 217.369 344.037C223.433 338.723 228.675 332.539 232.924 325.686C242.433 303.882 250.666 281.544 257.582 258.785C259.268 253.582 265.098 250.475 273.19 250.475C279.136 250.517 284.972 252.09 290.133 255.043C287.039 315.551 273.547 362.911 250.032 395.813C236.983 414.351 219.277 429.122 198.7 438.637C175.889 448.576 151.194 453.447 126.318 452.916Z" fill="white"/>
</svg>
